<svg width="357.1875" height="354.375" viewBox="0 0 142 142" fill="none" xmlns="http://www.w3.org/2000/svg">
<rect x="114.021" y="46.4435" width="22.8858" height="15" rx="2" transform="rotate(140 114.021 46.4435)" fill="#00007F"/>
<circle cx="74.4939" cy="69.1672" r="25" transform="rotate(140 74.4939 69.1672)" fill="#00007F"/>
<path fill-rule="evenodd" clip-rule="evenodd" d="M37 69.5C37 48.7893 53.7893 32 74.5 32C79.0295 32 83.3714 32.8031 87.3912 34.2746C87.779 34.4165 88.0324 34.7882 88.0324 35.2012L88.0324 43.8389C88.0324 44.605 87.2031 45.0914 86.5141 44.7562C82.8843 42.9905 78.8078 42 74.5 42C59.3122 42 47 54.3122 47 69.5C47 84.6878 59.3122 97 74.5 97C78.8078 97 82.8843 96.0095 86.5141 94.2438C87.2031 93.9086 88.0324 94.395 88.0324 95.1611L88.0324 103.799C88.0324 104.212 87.779 104.583 87.3912 104.725C83.3714 106.197 79.0295 107 74.5 107C53.7893 107 37 90.2107 37 69.5Z" fill="#808080"/>
<path fill-rule="evenodd" clip-rule="evenodd" d="M112.067 82.3371C112.328 81.5827 113.321 81.3779 113.834 81.9893L119.331 88.5402C119.57 88.8252 119.632 89.2199 119.486 89.5622C113.102 104.57 99.5098 116.162 82.2567 119.248C55.0738 124.11 29.0964 106.015 24.2346 78.8323C19.5195 52.4701 36.3959 27.2416 62.2137 21.3077C62.5756 21.2245 62.9549 21.3536 63.1936 21.6381L68.5837 28.0617C69.0967 28.6731 68.7225 29.6159 67.9343 29.7414C61.0203 30.8427 54.3066 33.774 48.5532 38.6017C31.6302 52.8018 29.4228 78.032 43.6229 94.955C57.8229 111.878 83.0532 114.085 99.9762 99.8853C105.73 95.0575 109.782 88.9548 112.067 82.3371Z" fill="#00007F"/>
<path d="M58.5068 73.6889L58.5068 74.0569C58.5068 74.1742 58.4481 74.2329 58.3308 74.2329L56.0268 74.2329C55.3335 74.2329 54.7841 74.0302 54.3788 73.6249C53.9841 73.2195 53.7868 72.6649 53.7868 71.9609L53.7868 68.3449C53.7868 67.6409 53.9841 67.0862 54.3788 66.6809C54.7841 66.2755 55.3335 66.0729 56.0268 66.0729L58.3308 66.0729C58.4481 66.0729 58.5068 66.1315 58.5068 66.2489L58.5068 66.6329C58.5068 66.7395 58.4481 66.7929 58.3308 66.7929L56.0908 66.7929C55.6001 66.7929 55.2268 66.9315 54.9708 67.2089C54.7148 67.4862 54.5868 67.8755 54.5868 68.3769L54.5868 71.9289C54.5868 72.4302 54.7148 72.8195 54.9708 73.0969C55.2268 73.3742 55.6001 73.5129 56.0908 73.5129L58.3308 73.5129C58.4481 73.5129 58.5068 73.5715 58.5068 73.6889ZM63.6997 74.2329L62.3237 74.2329C61.6303 74.2329 61.081 74.0302 60.6757 73.6249C60.281 73.2195 60.0837 72.6649 60.0837 71.9609L60.0837 68.3449C60.0837 67.6409 60.281 67.0862 60.6757 66.6809C61.081 66.2755 61.6303 66.0729 62.3237 66.0729L63.6997 66.0729C64.393 66.0729 64.9423 66.2755 65.3477 66.6809C65.753 67.0862 65.9557 67.6409 65.9557 68.3449L65.9557 71.9609C65.9557 72.6649 65.753 73.2195 65.3477 73.6249C64.9423 74.0302 64.393 74.2329 63.6997 74.2329ZM62.3877 73.5129L63.6357 73.5129C64.1263 73.5129 64.4997 73.3795 64.7557 73.1129C65.0223 72.8355 65.1557 72.4462 65.1557 71.9449L65.1557 68.3609C65.1557 67.8595 65.0223 67.4755 64.7557 67.2089C64.4997 66.9315 64.1263 66.7929 63.6357 66.7929L62.3877 66.7929C61.897 66.7929 61.5237 66.9315 61.2677 67.2089C61.0117 67.4755 60.8837 67.8595 60.8837 68.3609L60.8837 71.9449C60.8837 72.4462 61.0117 72.8355 61.2677 73.1129C61.5237 73.3795 61.897 73.5129 62.3877 73.5129ZM70.8212 74.2329L68.0372 74.2329C67.9198 74.2329 67.8612 74.1742 67.8612 74.0569L67.8612 73.6889C67.8612 73.5822 67.9198 73.5289 68.0372 73.5289L70.7412 73.5289C71.7012 73.5289 72.1812 73.1555 72.1812 72.4089L72.1812 72.0249C72.1812 71.3315 71.8825 70.8782 71.2852 70.6649L69.2852 69.8969C68.7412 69.6835 68.3518 69.4329 68.1172 69.1449C67.8932 68.8569 67.7812 68.4569 67.7812 67.9449C67.7812 66.6969 68.4692 66.0729 69.8452 66.0729L72.4372 66.0729C72.5545 66.0729 72.6132 66.1315 72.6132 66.2489L72.6132 66.6169C72.6132 66.7235 72.5545 66.7769 72.4372 66.7769L69.9252 66.7769C69.4878 66.7769 69.1572 66.8729 68.9332 67.0649C68.7198 67.2569 68.6132 67.4809 68.6132 67.7369L68.6132 68.1049C68.6132 68.4035 68.6932 68.6382 68.8532 68.8089C69.0238 68.9795 69.2798 69.1235 69.6212 69.2409L71.6212 70.0409C72.1758 70.2222 72.5438 70.4942 72.7252 70.8569C72.9172 71.2089 73.0132 71.7049 73.0132 72.3449C73.0132 72.9849 72.8318 73.4595 72.4692 73.7689C72.1172 74.0782 71.5678 74.2329 70.8212 74.2329ZM78.5278 74.2329L77.1518 74.2329C76.4585 74.2329 75.9091 74.0302 75.5038 73.6249C75.1091 73.2195 74.9118 72.6649 74.9118 71.9609L74.9118 68.3449C74.9118 67.6409 75.1091 67.0862 75.5038 66.6809C75.9091 66.2755 76.4585 66.0729 77.1518 66.0729L78.5278 66.0729C79.2211 66.0729 79.7705 66.2755 80.1758 66.6809C80.5811 67.0862 80.7838 67.6409 80.7838 68.3449L80.7838 71.9609C80.7838 72.6649 80.5811 73.2195 80.1758 73.6249C79.7705 74.0302 79.2211 74.2329 78.5278 74.2329ZM77.2158 73.5129L78.4638 73.5129C78.9545 73.5129 79.3278 73.3795 79.5838 73.1129C79.8505 72.8355 79.9838 72.4462 79.9838 71.9449L79.9838 68.3609C79.9838 67.8595 79.8505 67.4755 79.5838 67.2089C79.3278 66.9315 78.9545 66.7929 78.4638 66.7929L77.2158 66.7929C76.7251 66.7929 76.3518 66.9315 76.0958 67.2089C75.8398 67.4755 75.7118 67.8595 75.7118 68.3609L75.7118 71.9449C75.7118 72.4462 75.8398 72.8355 76.0958 73.1129C76.3518 73.3795 76.7251 73.5129 77.2158 73.5129ZM87.5693 73.6889L87.5693 74.0569C87.5693 74.1742 87.5106 74.2329 87.3933 74.2329L85.0893 74.2329C84.396 74.2329 83.8466 74.0302 83.4413 73.6249C83.0466 73.2195 82.8493 72.6649 82.8493 71.9609L82.8493 68.3449C82.8493 67.6409 83.0466 67.0862 83.4413 66.6809C83.8466 66.2755 84.396 66.0729 85.0893 66.0729L87.3933 66.0729C87.5106 66.0729 87.5693 66.1315 87.5693 66.2489L87.5693 66.6329C87.5693 66.7395 87.5106 66.7929 87.3933 66.7929L85.1533 66.7929C84.6626 66.7929 84.2893 66.9315 84.0333 67.2089C83.7773 67.4862 83.6493 67.8755 83.6493 68.3769L83.6493 71.9289C83.6493 72.4302 83.7773 72.8195 84.0333 73.0969C84.2893 73.3742 84.6626 73.5129 85.1533 73.5129L87.3933 73.5129C87.5106 73.5129 87.5693 73.5715 87.5693 73.6889ZM93.8982 66.0729L94.3942 66.0729C94.4582 66.0729 94.5008 66.0942 94.5222 66.1369C94.5435 66.1689 94.5328 66.2115 94.4902 66.2649L92.0422 69.9769L92.0422 70.0409L94.7782 74.0409C94.8208 74.0942 94.8315 74.1422 94.8102 74.1849C94.7888 74.2169 94.7462 74.2329 94.6822 74.2329L94.1862 74.2329C94.0262 74.2329 93.9035 74.1689 93.8182 74.0409L91.1782 70.1529C91.1355 70.0675 91.1355 69.9822 91.1782 69.8969L93.5782 66.2329C93.6422 66.1262 93.7488 66.0729 93.8982 66.0729ZM89.9302 74.2329L89.4662 74.2329C89.3595 74.2329 89.3062 74.1689 89.3062 74.0409L89.3062 63.1769C89.3062 63.0489 89.3595 62.9849 89.4662 62.9849L89.9302 62.9849C90.0475 62.9849 90.1062 63.0489 90.1062 63.1769L90.1062 74.0409C90.1062 74.1689 90.0475 74.2329 89.9302 74.2329Z" fill="white"/>
</svg>
